HIERARCHY
ROOT Hips
{
	OFFSET 0.00000 0.00000 0.00000
	CHANNELS 6 Xposition Yposition Zposition Zrotation Yrotation Xrotation 
	JOINT RightUpLegDummy
	{
		OFFSET 0 0 0
		CHANNELS 3 Zrotation Yrotation Xrotation
		JOINT RightUpLeg
		{
			OFFSET -3.52197 -3.41223 0.04002
			CHANNELS 3 Zrotation Yrotation Xrotation
			JOINT RightLeg
			{
				OFFSET 0.00006 -17.42390 1.60435
				CHANNELS 3 Zrotation Yrotation Xrotation
				JOINT RightFoot
				{
					OFFSET 0.06153 -16.50078 -1.63901
					CHANNELS 3 Zrotation Yrotation Xrotation
					JOINT RightToes
					{
						OFFSET 0.00298 -1.73825 3.34613
						CHANNELS 3 Zrotation Yrotation Xrotation
						End Site
						{
							OFFSET 0.00480 -0.05416 3.85043
						}
					}
				}
			}
		}
	}
	JOINT SpineDummy
	{
		OFFSET 0 0 0
		CHANNELS 3 Zrotation Yrotation Xrotation
		JOINT Spine
		{
			OFFSET 0.00000 4.68130 0.00000
			CHANNELS 3 Zrotation Yrotation Xrotation
			JOINT Spine1
			{
				OFFSET -0.00000 10.10138 0.05002
				CHANNELS 3 Zrotation Yrotation Xrotation
				JOINT HEadDummy
				{
					OFFSET 0 0 0
					CHANNELS 3 Zrotation Yrotation Xrotation
					JOINT Head
					{
						OFFSET -0.00000 3.43865 0.00438
						CHANNELS 3 Zrotation Yrotation Xrotation
						End Site
						{
							OFFSET -0.11417 5.02924 0.98962
						}
					}
				}
				JOINT LeftShoulder1Dummy
				{
					OFFSET 0 0 0
					CHANNELS 3 Zrotation Yrotation Xrotation
					JOINT LeftShoulder1
					{
						OFFSET 3.53937 -0.14262 -0.08662
						CHANNELS 3 Zrotation Yrotation Xrotation
						JOINT LeftArm
						{
							OFFSET 4.04833 -0.00133 0.12681
							CHANNELS 3 Zrotation Yrotation Xrotation
							JOINT LeftForeArm
							{
								OFFSET 10.33880 -0.01036 -0.55515
								CHANNELS 3 Zrotation Yrotation Xrotation
								JOINT LeftHand
								{
									OFFSET 8.69677 0.07543 0.40060
									CHANNELS 3 Zrotation Yrotation Xrotation
									End Site
									{
										OFFSET 5.28377 -0.21905 0.59205
									}
								}
							}
						}
					}
				}
				JOINT RightShoulderDummy
				{
					OFFSET 0 0 0
					CHANNELS 3 Zrotation Yrotation Xrotation
					JOINT RightShoulder
					{
						OFFSET -3.53937 -0.14262 -0.08660
						CHANNELS 3 Zrotation Yrotation Xrotation
						JOINT RightArm
						{
							OFFSET -4.04833 -0.00133 0.12683
							CHANNELS 3 Zrotation Yrotation Xrotation
							JOINT RightForeArm
							{
								OFFSET -10.37987 -0.01039 -0.55511
								CHANNELS 3 Zrotation Yrotation Xrotation
								JOINT RightHand
								{
									OFFSET -8.67398 0.07538 0.40058
									CHANNELS 3 Zrotation Yrotation Xrotation
									End Site
									{
										OFFSET -5.24810 -0.21916 0.59204
									}
								}
							}
						}
					}
				}
			}
		}
	}
	JOINT LeftUpLegDummy
	{
		OFFSET 0 0 0
		CHANNELS 3 Zrotation Yrotation Xrotation
		JOINT LeftUpLeg
		{
			OFFSET 3.52197 -3.41223 0.04002
			CHANNELS 3 Zrotation Yrotation Xrotation
			JOINT LeftLeg
			{
				OFFSET -0.00012 -17.42399 1.60337
				CHANNELS 3 Zrotation Yrotation Xrotation
				JOINT LeftFoot
				{
					OFFSET -0.09972 -16.50070 -1.63802
					CHANNELS 3 Zrotation Yrotation Xrotation
					JOINT LeftToes
					{
						OFFSET -0.01575 -1.73823 3.34611
						CHANNELS 3 Zrotation Yrotation Xrotation
						End Site
						{
							OFFSET 0.03150 -0.01868 3.85031
						}
					}
				}
			}
		}
	}
}
MOTION
Frames: 12
Frame Time: 0.033333
16.5343 37.8192 35.3860 5.1182 -40.1305 -10.2391 0.0000 0.0000 0.0000 8.8560 1.3713 -13.9934 -8.4106 -20.6538 21.3988 -12.5699 0.5865 -5.8146 0.0000 -0.0000 0.0000 0.0000 0.0000 0.0000 -1.8535 -1.7787 9.2709 6.0688 -2.7477 -2.8554 -0.0000 0.0000 -0.0000 3.3821 -3.8801 0.3606 -0.0000 0.0000 -0.0000 -34.1694 -2.8432 2.5514 -38.6575 -15.8514 -18.4929 -10.8516 5.2189 44.6463 13.0724 -5.8009 -1.2154 -0.0000 0.0000 -0.0000 34.9677 5.1877 3.5627 39.5444 -1.3872 -19.7178 10.0363 -1.2930 21.7545 -10.5073 2.0413 -0.6556 0.0000 0.0000 0.0000 7.5041 13.9831 6.2474 -10.4806 -6.8371 52.7814 -15.8654 4.4521 20.6211 0.0000 0.0000 -0.0000
15.7951 37.7130 36.3441 5.5212 -42.9929 -11.1223 0.0000 0.0000 0.0000 9.5007 1.2967 -12.6445 -8.4525 -17.7706 24.1824 -13.7285 0.3383 -8.2845 0.0000 -0.0000 0.0000 0.0000 0.0000 0.0000 -2.1281 -1.3895 10.1606 6.2272 -2.3916 -2.8848 -0.0000 0.0000 -0.0000 3.9536 -4.0484 -0.1649 -0.0000 0.0000 -0.0000 -33.9179 -2.9199 2.5659 -39.3972 -15.6489 -18.4401 -10.6615 5.1612 46.8347 11.8199 -6.2967 -1.1400 -0.0000 0.0000 -0.0000 35.0978 5.2142 3.5851 39.3639 -0.3036 -18.8351 10.2966 -0.0538 21.1156 -10.3949 1.7794 -0.6269 0.0000 0.0000 0.0000 6.3535 10.1796 1.1145 -10.7360 -5.4996 58.9050 -11.1565 2.9869 19.5410 0.0000 0.0000 -0.0000
14.9334 37.7835 37.3495 6.5902 -46.1537 -12.3174 0.0000 0.0000 0.0000 9.6586 1.3526 -10.3646 -8.0024 -15.2056 25.0863 -14.6375 0.1069 -10.2250 0.0000 -0.0000 0.0000 0.0000 0.0000 0.0000 -2.7726 -0.8664 10.3897 6.3602 -1.9171 -2.7400 -0.0000 0.0000 -0.0000 4.2839 -4.2662 -0.2225 -0.0000 0.0000 -0.0000 -34.1403 -2.9283 2.5837 -39.2705 -15.3551 -18.2714 -10.5585 5.0711 49.9878 10.6680 -6.8468 -1.0697 -0.0000 0.0000 -0.0000 35.1475 5.2193 3.5916 39.3771 0.4835 -17.4682 10.7435 1.9370 20.0776 -10.4028 1.5964 -0.6124 0.0000 0.0000 0.0000 5.3812 7.2229 -3.2583 -5.1693 -2.4696 61.3209 -7.0735 1.4866 13.6445 0.0000 0.0000 -0.0000
14.0500 37.8694 38.3571 7.9169 -49.9375 -13.5980 0.0000 0.0000 0.0000 9.5925 1.3576 -7.9166 -7.0811 -12.1580 25.5057 -15.2942 -0.1396 -12.0487 0.0000 -0.0000 0.0000 0.0000 0.0000 0.0000 -2.8002 -0.2459 10.3656 5.8341 -1.2315 -2.6931 -0.0000 0.0000 -0.0000 4.3525 -4.3357 0.0943 -0.0000 0.0000 -0.0000 -34.4592 -2.8411 2.5692 -38.7997 -14.7781 -18.2433 -10.5198 5.0123 51.9272 10.4519 -7.1015 -1.0677 -0.0000 0.0000 -0.0000 34.9998 5.1860 3.5648 39.7713 1.2511 -15.9952 11.1016 4.1063 19.3073 -10.6474 1.7033 -0.6362 0.0000 0.0000 0.0000 4.7764 5.0112 -7.1129 2.7881 0.9365 61.1716 -2.8323 0.4278 7.5339 0.0000 0.0000 -0.0000
13.1553 37.9720 39.3468 9.5099 -54.1316 -15.1404 0.0000 0.0000 0.0000 9.2860 1.3474 -5.0987 -5.6573 -8.6793 25.2326 -16.3039 -0.3884 -13.6993 0.0000 -0.0000 0.0000 0.0000 0.0000 0.0000 -2.2918 0.3469 10.3125 4.7722 -0.4781 -2.6094 -0.0000 0.0000 -0.0000 4.1722 -4.1123 0.3472 -0.0000 0.0000 -0.0000 -34.6234 -2.7475 2.5418 -38.3705 -14.0323 -18.5487 -10.5163 5.0340 51.2200 11.0968 -6.8143 -1.1120 -0.0000 0.0000 -0.0000 34.8331 5.1559 3.5378 40.3263 2.2639 -13.9759 11.2185 6.2903 18.1288 -11.0164 1.8981 -0.6759 0.0000 0.0000 0.0000 4.4189 3.1183 -10.3954 9.0647 4.0719 58.9615 2.1182 -0.2814 2.7920 0.0000 0.0000 -0.0000
12.2201 38.1404 40.2765 11.5643 -58.1477 -17.1533 0.0000 0.0000 0.0000 8.6395 1.3805 -1.8836 -4.1653 -5.3721 24.0167 -17.3155 -0.5830 -14.8143 0.0000 -0.0000 0.0000 0.0000 0.0000 0.0000 -2.0165 0.7905 10.2419 3.9040 0.0937 -2.3917 -0.0000 0.0000 -0.0000 3.8298 -3.6650 0.2941 -0.0000 0.0000 -0.0000 -34.7344 -2.6959 2.5279 -37.9224 -13.4266 -19.2482 -10.3944 5.0929 49.3271 11.7821 -6.2994 -1.1367 -0.0000 0.0000 -0.0000 34.7552 5.1532 3.5299 40.7495 3.5178 -10.9666 11.0613 8.3515 16.0089 -11.1999 2.0524 -0.7011 0.0000 0.0000 0.0000 4.0848 1.2238 -12.8579 12.8478 7.3180 54.2117 5.0405 -0.4445 -1.3051 0.0000 0.0000 -0.0000
11.2593 38.2944 41.1318 13.9589 -61.6497 -19.4210 0.0000 0.0000 0.0000 7.7812 1.6630 1.0359 -3.0150 -2.6064 22.8933 -17.6945 -0.7227 -15.6141 0.0000 -0.0000 0.0000 0.0000 0.0000 0.0000 -2.1809 1.0346 10.1003 3.5159 0.3802 -2.1721 -0.0000 0.0000 -0.0000 3.5334 -3.2043 0.0714 -0.0000 0.0000 -0.0000 -34.7381 -2.6611 2.5139 -37.5075 -13.1275 -20.1860 -10.0147 5.1180 48.6256 11.9870 -5.9926 -1.1282 -0.0000 0.0000 -0.0000 34.6392 5.1434 3.5157 41.0734 4.7979 -7.8703 10.7654 9.9428 14.1360 -10.9993 2.2165 -0.7025 0.0000 0.0000 0.0000 3.6755 -0.7934 -14.5070 13.7026 10.4787 46.7274 4.9834 -0.2992 -3.9708 0.0000 0.0000 -0.0000
10.2831 38.3902 41.9292 16.3456 -64.7142 -21.5595 0.0000 0.0000 0.0000 6.9774 2.5299 3.5600 -2.1033 -0.6360 22.0573 -17.9365 -0.8483 -16.3299 0.0000 -0.0000 0.0000 0.0000 0.0000 0.0000 -2.4227 1.1193 9.8878 3.3531 0.4731 -2.0819 -0.0000 0.0000 -0.0000 3.4103 -2.8871 -0.1178 -0.0000 0.0000 -0.0000 -34.4543 -2.6496 2.4915 -37.3169 -13.0644 -21.0388 -9.4907 5.0970 49.5405 11.9686 -5.9469 -1.1219 -0.0000 0.0000 -0.0000 34.4928 5.1146 3.4912 41.4128 5.7773 -5.0688 10.3649 11.2260 12.7078 -10.6892 2.3439 -0.6929 0.0000 0.0000 0.0000 3.2591 -2.6258 -15.4306 11.2038 12.0256 36.8366 3.6831 -0.1946 -4.4079 0.0000 0.0000 -0.0000
9.2990 38.5127 42.6555 18.5921 -67.4987 -23.4721 0.0000 0.0000 0.0000 6.2819 3.7076 6.2004 -1.1685 0.6747 20.4034 -18.5302 -0.9173 -16.5872 0.0000 -0.0000 0.0000 0.0000 0.0000 0.0000 -2.6096 1.1277 9.6583 3.3157 0.4831 -2.1094 -0.0000 0.0000 -0.0000 3.3791 -2.7280 -0.2966 -0.0000 0.0000 -0.0000 -34.0632 -2.6837 2.4808 -37.1793 -13.1052 -21.5981 -9.0755 5.0617 50.8649 12.0833 -5.9160 -1.1302 -0.0000 0.0000 -0.0000 34.5410 5.1126 3.4946 41.5794 6.2302 -2.2466 9.8052 12.5753 10.6084 -10.6999 2.3455 -0.6937 0.0000 0.0000 0.0000 2.8297 -3.2591 -15.6289 6.3508 10.0096 25.1826 0.9476 -0.0371 -3.9035 0.0000 0.0000 -0.0000
8.3029 38.6634 43.3269 20.6838 -70.0537 -25.1585 0.0000 0.0000 0.0000 5.6358 4.7363 8.7142 -0.2225 1.7357 18.3777 -18.6276 -0.8602 -16.2154 0.0000 -0.0000 0.0000 0.0000 0.0000 0.0000 -2.8322 1.0751 9.2772 3.5232 0.4038 -2.0879 -0.0000 0.0000 -0.0000 3.3558 -2.6654 -0.5867 -0.0000 0.0000 -0.0000 -33.8991 -2.7128 2.4821 -36.7798 -13.1606 -21.9844 -8.8164 5.0355 51.8061 12.2216 -5.7560 -1.1282 -0.0000 0.0000 -0.0000 34.7797 5.1510 3.5311 41.3955 6.2754 -0.0360 9.3305 13.6147 8.2546 -10.9050 2.2904 -0.7027 0.0000 0.0000 0.0000 2.1017 -1.6233 -15.1917 1.4924 3.3946 13.4659 -4.0629 0.2668 -4.3484 0.0000 0.0000 -0.0000
7.2595 38.7257 44.0099 22.3540 -72.4291 -26.4395 0.0000 0.0000 0.0000 5.2095 5.8831 10.4845 0.6078 2.4794 17.8149 -17.7207 -0.7192 -15.5817 0.0000 -0.0000 0.0000 0.0000 0.0000 0.0000 -2.9149 0.9052 8.6403 3.8830 0.1906 -1.8963 -0.0000 0.0000 -0.0000 3.3844 -2.6715 -0.9221 -0.0000 0.0000 -0.0000 -33.9253 -2.6841 2.4723 -36.2583 -13.1534 -22.4350 -8.5659 5.0236 52.2709 12.2953 -5.5498 -1.1150 -0.0000 0.0000 -0.0000 34.8868 5.1709 3.5487 41.0596 6.1798 -0.0154 9.4079 13.5596 7.9125 -10.8388 2.2448 -0.6944 0.0000 0.0000 0.0000 1.2631 0.5993 -14.7610 -1.3690 -5.0041 5.1386 -8.4570 0.4370 -5.9633 0.0000 0.0000 -0.0000
6.1751 38.6642 44.7242 23.4608 -74.7222 -27.4157 0.0000 0.0000 0.0000 5.0468 6.7184 11.6506 1.2994 3.2056 19.1555 -16.8225 -0.5996 -15.0262 0.0000 -0.0000 0.0000 0.0000 0.0000 0.0000 -2.6657 0.6428 8.1483 4.2125 -0.1050 -1.7058 -0.0000 0.0000 -0.0000 3.4713 -2.7826 -1.0704 -0.0000 0.0000 -0.0000 -33.9635 -2.6440 2.4587 -35.9490 -13.0529 -22.9534 -8.2985 5.0315 52.1061 12.5312 -5.3001 -1.1123 -0.0000 0.0000 -0.0000 34.7746 5.1480 3.5294 40.7417 5.9050 -2.2972 9.9726 12.4501 9.8769 -10.6269 2.1516 -0.6725 0.0000 0.0000 0.0000 0.9468 0.0271 -15.2433 -2.2994 -9.4198 3.6279 -8.3929 0.3591 -7.0168 0.0000 0.0000 -0.0000
